<?xml version="1.0" encoding="utf-8"?>
<!-- Generator: Adobe Illustrator 16.0.0, SVG Export Plug-In . SVG Version: 6.00 Build 0)  -->
<!DOCTYPE svg PUBLIC "-//W3C//DTD SVG 1.1//EN" "http://www.w3.org/Graphics/SVG/1.1/DTD/svg11.dtd">
<svg version="1.1" id="Layer_1" xmlns="http://www.w3.org/2000/svg" xmlns:xlink="http://www.w3.org/1999/xlink" x="0px" y="0px"
	 width="400px" height="100px" viewBox="0 0 400 100" enable-background="new 0 0 400 100" xml:space="preserve">
<radialGradient id="SVGID_1_" cx="200.1396" cy="48.707" r="143.0167" gradientUnits="userSpaceOnUse">
	<stop  offset="0" style="stop-color:#752AFF;stop-opacity:0"/>
	<stop  offset="1" style="stop-color:#3FFFDC"/>
</radialGradient>
<path fill="none" stroke="url(#SVGID_1_)" stroke-width="9.1562" stroke-miterlimit="10" d="M383.044,14.333H94.624
	c0,0-7.273,1.158-7.931,8.568c-0.696,7.839-5.574,35.479-5.574,35.479c-2.061,6.638-4.691,7.401-10.758,7.401h-2.519
	c-6.068,0-9.843-1.486-9.843-7.554c0,0,3.592-23.938,4.086-31.968c1.144-10.071-7.01-11.927-10.672-11.927
	c-3.661,0-22.103,0.021-22.103,0.021c-10.226,0-13.821,5.771-14.956,10.072C11.457,35.414,8.72,54.918,6.727,66.543
	c-3.094,18.053,9.687,16.329,12.817,16.329l358.312,0.21c6.067,0,10.986-4.919,10.986-10.987l5.188-46.775
	C394.031,19.251,389.112,14.333,383.044,14.333z"/>
<path fill="#FFEED3" stroke="#FFEED3" d="M263.797,42.291c0,1.133-0.112,2.148-0.335,3.047c-0.226,0.899-0.499,1.731-0.823,2.494
	s-0.676,1.483-1.056,2.161c-0.38,0.676-0.736,1.366-1.073,2.066c-0.336,0.702-0.609,1.442-0.821,2.217
	c-0.213,0.775-0.318,1.632-0.318,2.566c0,1.012,0.188,1.938,0.568,2.789c0.382,0.85,0.794,1.718,1.242,2.605
	c0.447,0.884,0.861,1.832,1.24,2.843c0.381,1.009,0.571,2.18,0.571,3.508c0,1.872-0.382,3.652-1.141,5.338
	c-0.761,1.687-1.856,3.163-3.286,4.43c-1.433,1.268-3.176,2.271-5.232,3.012c-2.058,0.739-4.382,1.107-6.975,1.107
	c-2.124,0-4.03-0.239-5.72-0.72c-1.688-0.479-3.131-1.151-4.326-2.012c-1.194-0.862-2.112-1.88-2.749-3.048
	c-0.639-1.172-0.956-2.457-0.956-3.859c0-2.092,0.481-3.854,1.441-5.282c0.962-1.427,2.203-2.579,3.725-3.453
	c1.52-0.875,3.225-1.501,5.112-1.884c1.89-0.381,3.773-0.57,5.651-0.57c0.917,0,1.811,0.041,2.683,0.128
	c0.873,0.086,1.7,0.202,2.482,0.35c-0.09-0.395-0.162-0.787-0.218-1.182c-0.058-0.392-0.084-0.811-0.084-1.255
	c0-1.427,0.356-3.004,1.073-4.728c-0.851,0.641-1.812,1.132-2.885,1.477c-1.073,0.346-2.369,0.518-3.891,0.518
	c-1.295,0-2.531-0.233-3.704-0.7c-1.176-0.469-2.21-1.184-3.104-2.144s-1.604-2.16-2.129-3.602c-0.526-1.439-0.788-3.12-0.788-5.041
	c0-1.846,0.312-3.65,0.94-5.41c0.623-1.76,1.553-3.337,2.781-4.728c1.23-1.391,2.751-2.505,4.561-3.343
	c1.811-0.836,3.913-1.255,6.307-1.255c1.273,0,2.486,0.167,3.638,0.5c1.152,0.332,2.208,0.818,3.17,1.458h9.623l-0.368,2.954
	c-0.09,0.591-0.262,1.096-0.519,1.515c-0.259,0.418-0.633,0.702-1.124,0.85l-3.521,1.034c0.11,0.492,0.193,1.01,0.25,1.55
	C263.767,41.133,263.797,41.701,263.797,42.291z M255.446,69.36c0-0.343-0.018-0.683-0.052-1.015
	c-0.033-0.333-0.072-0.646-0.116-0.94c-1.207-0.224-2.319-0.383-3.338-0.481c-1.017-0.098-1.973-0.147-2.867-0.147
	c-1.52,0-2.822,0.136-3.906,0.405c-1.085,0.271-1.979,0.627-2.683,1.073c-0.705,0.441-1.22,0.96-1.544,1.55
	c-0.324,0.592-0.484,1.219-0.484,1.884c0,1.477,0.536,2.597,1.608,3.361c1.073,0.761,2.727,1.144,4.964,1.144
	c1.251,0,2.393-0.172,3.42-0.517s1.912-0.823,2.65-1.44c0.737-0.614,1.312-1.34,1.728-2.179
	C255.238,71.22,255.446,70.322,255.446,69.36z M250.047,51.449c1.005,0,1.889-0.259,2.649-0.776
	c0.759-0.516,1.402-1.193,1.929-2.031c0.525-0.838,0.922-1.78,1.19-2.826c0.268-1.046,0.402-2.111,0.402-3.194
	c0-1.847-0.392-3.262-1.175-4.247c-0.782-0.985-1.923-1.478-3.42-1.478c-1.006,0-1.89,0.24-2.649,0.721
	c-0.761,0.48-1.397,1.121-1.912,1.92c-0.515,0.8-0.9,1.717-1.158,2.752c-0.256,1.034-0.385,2.105-0.385,3.211
	c0,1.897,0.385,3.362,1.158,4.396C247.446,50.934,248.571,51.449,250.047,51.449z"/>
<path fill="#FFEED3" stroke="#FFEED3" d="M282.274,31.32l-4.125,37.895h-8.184l4.126-37.895H282.274z M284.354,20.278
	c0,0.789-0.152,1.527-0.453,2.216c-0.302,0.689-0.692,1.292-1.174,1.809c-0.481,0.519-1.035,0.931-1.66,1.238
	c-0.626,0.308-1.273,0.461-1.945,0.461c-0.649,0-1.28-0.153-1.895-0.461c-0.614-0.307-1.158-0.72-1.626-1.238
	c-0.47-0.516-0.845-1.12-1.124-1.809c-0.28-0.689-0.42-1.428-0.42-2.216c0-0.788,0.146-1.538,0.438-2.253
	c0.289-0.714,0.671-1.335,1.14-1.865c0.47-0.53,1.012-0.948,1.625-1.255c0.616-0.308,1.247-0.462,1.896-0.462
	c0.671,0,1.319,0.154,1.945,0.462c0.627,0.307,1.181,0.72,1.66,1.237c0.48,0.517,0.866,1.132,1.157,1.846
	C284.208,18.703,284.354,19.466,284.354,20.278z"/>
<path fill="#FFEED3" stroke="#FFEED3" d="M309.339,38.449c-0.248,0.394-0.482,0.671-0.706,0.831s-0.514,0.241-0.872,0.241
	c-0.38,0-0.771-0.124-1.173-0.37c-0.403-0.245-0.868-0.523-1.393-0.83c-0.525-0.308-1.128-0.585-1.812-0.831
	c-0.682-0.246-1.503-0.37-2.465-0.37c-1.765,0-3.118,0.438-4.056,1.312c-0.941,0.873-1.41,1.963-1.41,3.269
	c0,0.763,0.195,1.407,0.587,1.938c0.392,0.529,0.899,0.992,1.527,1.384c0.624,0.394,1.34,0.757,2.146,1.09
	c0.804,0.331,1.632,0.69,2.481,1.071c0.848,0.383,1.676,0.812,2.481,1.292c0.805,0.48,1.521,1.065,2.146,1.755
	c0.627,0.689,1.134,1.519,1.525,2.493s0.587,2.137,0.587,3.489c0,1.822-0.329,3.559-0.989,5.208
	c-0.659,1.649-1.604,3.097-2.834,4.341c-1.23,1.242-2.716,2.228-4.46,2.953c-1.744,0.727-3.688,1.09-5.835,1.09
	c-1.096,0-2.152-0.117-3.169-0.351c-1.019-0.235-1.974-0.561-2.867-0.978c-0.896-0.42-1.707-0.912-2.433-1.479
	c-0.727-0.564-1.348-1.18-1.861-1.846l2.013-3.471c0.245-0.419,0.542-0.74,0.89-0.961c0.344-0.223,0.754-0.332,1.224-0.332
	c0.468,0,0.894,0.161,1.273,0.479c0.38,0.319,0.826,0.671,1.342,1.053c0.515,0.383,1.134,0.732,1.862,1.052
	c0.727,0.32,1.659,0.481,2.8,0.481c0.917,0,1.727-0.136,2.431-0.407c0.704-0.27,1.297-0.64,1.777-1.107
	c0.481-0.468,0.844-1.01,1.09-1.625s0.369-1.27,0.369-1.959c0-0.835-0.189-1.532-0.57-2.086c-0.379-0.554-0.889-1.033-1.524-1.439
	c-0.64-0.406-1.359-0.763-2.165-1.071c-0.805-0.308-1.626-0.634-2.465-0.978c-0.838-0.346-1.655-0.741-2.448-1.184
	s-1.508-1.002-2.146-1.679c-0.637-0.678-1.146-1.503-1.525-2.475c-0.381-0.972-0.57-2.161-0.57-3.564
	c0-1.673,0.291-3.305,0.871-4.894c0.581-1.588,1.437-2.991,2.566-4.21c1.129-1.218,2.516-2.198,4.158-2.936
	c1.644-0.739,3.525-1.109,5.651-1.109c2.189,0,4.13,0.413,5.817,1.238c1.689,0.825,3.113,1.877,4.277,3.157L309.339,38.449z"/>
<path fill="#FFEED3" stroke="#FFEED3" d="M327.445,14.333l-3.487,31.43h0.839c0.514,0,0.933-0.086,1.258-0.26
	c0.325-0.171,0.665-0.492,1.023-0.958l9.121-11.634c0.402-0.492,0.815-0.881,1.24-1.164c0.425-0.282,0.963-0.425,1.61-0.425h7.378
	l-11.334,14.073c-0.427,0.517-0.851,0.991-1.275,1.421c-0.427,0.431-0.873,0.806-1.342,1.126c0.424,0.346,0.775,0.771,1.056,1.275
	s0.553,1.04,0.822,1.606l8.518,18.394h-7.175c-0.604,0-1.103-0.123-1.494-0.37c-0.391-0.245-0.721-0.667-0.988-1.256l-6.674-14.366
	c-0.269-0.566-0.542-0.936-0.823-1.107c-0.279-0.173-0.731-0.26-1.357-0.26h-1.107l-1.91,17.359h-8.182l6.102-54.882H327.445z"/>
<path fill="#FFEED3" stroke="#FFEED3" d="M372.149,69.215h-4.36c-1.005,0-1.71-0.261-2.111-0.775
	c-0.403-0.519-0.604-1.171-0.604-1.958l0.269-5.171c-1.521,2.61-3.23,4.671-5.132,6.186c-1.899,1.515-3.989,2.271-6.271,2.271
	c-1.296,0-2.51-0.282-3.639-0.85c-1.129-0.565-2.113-1.409-2.951-2.53s-1.498-2.522-1.979-4.21c-0.48-1.687-0.721-3.661-0.721-5.926
	c0-2.267,0.256-4.471,0.771-6.612c0.514-2.142,1.246-4.155,2.196-6.039c0.95-1.884,2.097-3.613,3.437-5.19
	c1.342-1.575,2.846-2.929,4.512-4.062c1.665-1.132,3.464-2.013,5.399-2.64c1.932-0.628,3.974-0.942,6.119-0.942
	c1.543,0,3.092,0.123,4.646,0.369c1.553,0.246,3.079,0.689,4.576,1.331L372.149,69.215z M357.192,62.308
	c0.917,0,1.817-0.344,2.699-1.033c0.883-0.69,1.717-1.645,2.5-2.863c0.78-1.219,1.508-2.653,2.178-4.303
	c0.672-1.649,1.253-3.421,1.745-5.318l1.308-11.449c-0.604-0.075-1.162-0.111-1.677-0.111c-1.856,0-3.576,0.467-5.165,1.403
	c-1.588,0.936-2.962,2.196-4.124,3.786c-1.163,1.588-2.073,3.434-2.733,5.54c-0.66,2.104-0.989,4.328-0.989,6.667
	c0,2.659,0.38,4.604,1.141,5.835C354.834,61.69,355.872,62.308,357.192,62.308z"/>
<path fill="#FFEED3" stroke="#FFEED3" d="M47.255,69.215h-4.36c-1.006,0-1.709-0.261-2.112-0.775
	c-0.403-0.519-0.604-1.171-0.604-1.958l0.268-5.171c-1.52,2.61-3.23,4.671-5.131,6.186c-1.899,1.515-3.991,2.271-6.271,2.271
	c-1.298,0-2.51-0.282-3.638-0.85c-1.129-0.565-2.114-1.409-2.951-2.53c-0.838-1.121-1.5-2.522-1.979-4.21
	c-0.482-1.687-0.721-3.661-0.721-5.926c0-2.267,0.255-4.471,0.771-6.612c0.513-2.142,1.246-4.155,2.195-6.039
	c0.951-1.884,2.096-3.613,3.438-5.19c1.341-1.575,2.846-2.929,4.51-4.062c1.665-1.132,3.466-2.013,5.4-2.64
	c1.934-0.628,3.974-0.942,6.121-0.942c1.542,0,3.09,0.123,4.645,0.369c1.553,0.246,3.078,0.689,4.577,1.331L47.255,69.215z
	 M32.298,62.308c0.917,0,1.817-0.344,2.7-1.033c0.882-0.69,1.716-1.645,2.499-2.863c0.782-1.219,1.51-2.653,2.179-4.303
	c0.671-1.649,1.253-3.421,1.745-5.318l1.307-11.449c-0.604-0.075-1.163-0.111-1.676-0.111c-1.856,0-3.577,0.467-5.165,1.403
	c-1.588,0.936-2.962,2.196-4.125,3.786c-1.162,1.588-2.073,3.434-2.733,5.54c-0.659,2.104-0.988,4.328-0.988,6.667
	c0,2.659,0.379,4.604,1.139,5.835C29.94,61.69,30.979,62.308,32.298,62.308z"/>
<path fill="#FFEED3" stroke="#FFEED3" d="M94.171,61.495c0-0.172,0-0.374,0-0.608c0-0.236,0.018-0.58,0.051-1.036
	c0.032-0.453,0.088-1.058,0.167-1.809c0.079-0.752,0.186-1.718,0.32-2.898l1.912-16.989h-3.254c-0.38,0-0.687-0.129-0.923-0.388
	c-0.234-0.258-0.352-0.647-0.352-1.165c0-0.023,0.005-0.073,0.017-0.147c0.011-0.073,0.027-0.24,0.049-0.498
	c0.022-0.259,0.062-0.646,0.119-1.163c0.054-0.518,0.128-1.244,0.218-2.179l5.231-0.998l2.75-10.341
	c0.135-0.493,0.363-0.874,0.688-1.145c0.324-0.271,0.722-0.406,1.191-0.406h4.427l-1.342,11.929h8.317l-0.706,6.5h-8.35
	l-1.844,16.508c-0.113,1.01-0.196,1.811-0.251,2.402c-0.058,0.591-0.102,1.051-0.135,1.384c-0.034,0.331-0.056,0.567-0.067,0.702
	c-0.011,0.136-0.018,0.229-0.018,0.276c0,0.937,0.208,1.676,0.622,2.218c0.414,0.54,1,0.811,1.761,0.811
	c0.469,0,0.872-0.066,1.207-0.204c0.336-0.136,0.625-0.276,0.872-0.424c0.246-0.146,0.463-0.289,0.654-0.425
	c0.19-0.135,0.374-0.202,0.553-0.202c0.246,0,0.441,0.067,0.587,0.202c0.144,0.136,0.274,0.338,0.385,0.611l1.777,4.43
	c-1.229,1.108-2.593,1.946-4.092,2.511c-1.497,0.567-3.007,0.851-4.526,0.851c-2.438,0-4.365-0.727-5.785-2.18
	C94.981,66.173,94.238,64.129,94.171,61.495z"/>
<path fill="#FFEED3" stroke="#FFEED3" d="M127.708,69.768c-1.901,0-3.662-0.35-5.282-1.053c-1.621-0.702-3.018-1.729-4.192-3.084
	c-1.174-1.353-2.096-3.015-2.767-4.985c-0.671-1.969-1.007-4.222-1.007-6.759c0-3.274,0.475-6.326,1.425-9.16
	c0.951-2.83,2.248-5.281,3.89-7.35c1.643-2.067,3.562-3.692,5.752-4.874c2.19-1.183,4.527-1.773,7.009-1.773
	c1.901,0,3.662,0.351,5.283,1.053c1.621,0.702,3.023,1.729,4.207,3.084c1.186,1.355,2.114,3.016,2.783,4.986
	c0.671,1.971,1.008,4.224,1.008,6.758c0,3.251-0.482,6.286-1.442,9.104c-0.962,2.82-2.264,5.271-3.907,7.35
	c-1.644,2.08-3.561,3.719-5.752,4.912C132.525,69.171,130.189,69.768,127.708,69.768z M128.445,62.751
	c1.386,0,2.638-0.436,3.756-1.312c1.118-0.874,2.074-2.041,2.868-3.508c0.792-1.465,1.403-3.169,1.826-5.114
	c0.425-1.945,0.639-3.99,0.639-6.131c0-3.078-0.476-5.343-1.425-6.795c-0.951-1.453-2.388-2.179-4.31-2.179
	c-1.387,0-2.638,0.431-3.756,1.292c-1.118,0.863-2.067,2.031-2.85,3.509s-1.387,3.189-1.811,5.132
	c-0.425,1.946-0.637,4.002-0.637,6.17c0,3.077,0.469,5.336,1.409,6.775C125.091,62.032,126.521,62.751,128.445,62.751z"/>
<path fill="#FFEED3" stroke="#FFEED3" d="M148.968,69.215l4.193-37.93h4.192c0.849,0,1.52,0.221,2.012,0.665
	c0.491,0.442,0.736,1.146,0.736,2.105c0,0.025,0,0.062,0,0.11c0,0.05-0.006,0.216-0.016,0.499c-0.012,0.284-0.028,0.714-0.051,1.293
	s-0.056,1.398-0.101,2.455c1.543-2.584,3.221-4.51,5.031-5.78c1.812-1.268,3.7-1.901,5.667-1.901c2.125,0,3.796,0.775,5.015,2.328
	c1.218,1.551,1.927,3.791,2.128,6.722c1.61-3.103,3.393-5.387,5.35-6.853c1.956-1.464,4.085-2.197,6.388-2.197
	c2.571,0,4.556,0.955,5.953,2.862c1.397,1.908,2.096,4.661,2.096,8.255c0,0.492-0.011,1.015-0.034,1.569
	c-0.022,0.554-0.067,1.115-0.135,1.681l-2.582,24.118h-8.183c0.447-4.188,0.828-7.74,1.141-10.654
	c0.313-2.92,0.57-5.356,0.771-7.315c0.2-1.957,0.356-3.489,0.469-4.598c0.111-1.107,0.196-1.962,0.252-2.565
	c0.056-0.604,0.089-1.01,0.101-1.22c0.011-0.208,0.018-0.374,0.018-0.498c0-1.477-0.225-2.542-0.671-3.194
	c-0.447-0.652-1.173-0.979-2.18-0.979c-0.85,0-1.676,0.247-2.481,0.739c-0.805,0.494-1.57,1.207-2.296,2.142
	c-0.727,0.936-1.399,2.08-2.014,3.434c-0.614,1.356-1.155,2.881-1.626,4.58l-2.146,20.129h-8.15l2.583-24.118
	c0.045-0.517,0.083-1.003,0.117-1.458c0.034-0.456,0.051-0.881,0.051-1.275c0-1.477-0.219-2.542-0.653-3.194
	c-0.437-0.652-1.158-0.979-2.165-0.979c-0.871,0-1.722,0.258-2.548,0.776c-0.828,0.516-1.604,1.261-2.331,2.234
	c-0.727,0.973-1.397,2.155-2.012,3.544c-0.616,1.392-1.157,2.949-1.626,4.673l-2.147,19.797H148.968z"/>
<path fill="#FFEED3" stroke="#FFEED3" d="M229.021,69.215h-4.36c-1.006,0-1.709-0.261-2.111-0.775
	c-0.403-0.519-0.604-1.171-0.604-1.958l0.269-5.171c-1.521,2.61-3.23,4.671-5.132,6.186s-3.99,2.271-6.271,2.271
	c-1.298,0-2.511-0.282-3.64-0.85c-1.13-0.565-2.112-1.409-2.95-2.53c-0.839-1.121-1.498-2.522-1.979-4.21
	c-0.479-1.687-0.721-3.661-0.721-5.926c0-2.267,0.257-4.471,0.771-6.612c0.515-2.142,1.247-4.155,2.198-6.039
	c0.948-1.884,2.096-3.613,3.436-5.19c1.343-1.575,2.846-2.929,4.511-4.062c1.666-1.132,3.465-2.013,5.399-2.64
	c1.935-0.628,3.975-0.942,6.121-0.942c1.543,0,3.09,0.123,4.645,0.369s3.08,0.689,4.577,1.331L229.021,69.215z M214.062,62.308
	c0.918,0,1.816-0.344,2.699-1.033c0.884-0.69,1.718-1.645,2.498-2.863c0.783-1.219,1.511-2.653,2.182-4.303
	c0.67-1.649,1.252-3.421,1.744-5.318l1.308-11.449c-0.604-0.075-1.162-0.111-1.678-0.111c-1.855,0-3.577,0.467-5.164,1.403
	c-1.588,0.936-2.963,2.196-4.125,3.786c-1.163,1.588-2.074,3.434-2.733,5.54c-0.659,2.104-0.991,4.328-0.991,6.667
	c0,2.659,0.382,4.604,1.143,5.835C211.703,61.69,212.744,62.308,214.062,62.308z"/>
</svg>
